P3
# Deluxe Paint II
#  32 colors
8 4
255
  0   0   0
224 192 160
224   0   0
160   0   0
208 128   0
240 224   0
128 240   0
  0 128   0

  0 196  96
  0 208 208
  0 160 240
  0 112 192
  0   0 240
112   0 240
192   0 224
198   0 128

 96  32   0
224  80  32
160  80  32
240 192 160

 48  48  48
 64  64  64
 80  80  80
 96  96  96
112 112 112
128 128 128
144 144 144
160 160 160
192 192 192
208 208 208
224 224 224
240 240 240
