P3
# Windows System
#  256 colors
16 16
255
255 255 255   0 255 255 255   0 255   0   0 255 255 255   0 
  0 255   0 255   0   0 132 132 132 165 165 165 255 255 247 
 49  49  49 156  99   0  49  99  49   0  49 156 206   0 255 
140   0   0 255 206  99 255 156 206 222 222 222 255 156   0 
255  99 255 255  99 206 255  99 156 255  99  99 255  99  49 
255  99   0 255  49 255 255  49 206 255  49 156 255  49  99 
255  49  49 255  49   0 255   0 206 255  49 156 255  49  99 
255  49  49 206 255 255 206 255 206 206 255 156 206 255  99 
206 255  49 206 255   0 206 206 255 206 206 206 206 206 156 
206 206  99 206 206  49 206 206   0 206 156 255 206 156 206 
206 156 156 206 156  99 206 156  49 206 156   0 206  99 255 
206  99 206 206  99 156 206  99  99 206  99  49 206  99   0 
206  49 255 206  99 206 206  49 156 206  49  99 206  49  49 
206  49   0 214   8 255 206   0 206 206   0 156 206   0  99 
206   0  49 206   0   0 156 255 255 156 255 206 156 255 156 
156 255  99 156 255  49 156 255   0 156 206 255 156 206 206 
156 206 156 156 206  99 156 206  49 156 206 206 156 156 255 
156 156 206 156 156 156 156 156  99 156 156  49 156 156   0 
156  99 255 156  99 206 156  99 156 156  99  99 156  99  49 
165  99   0 156  49 255 156  49 206 156  49 156 156  49  99 
156  49  49 156  49   0 156   0 255 156   0 206 156   0 156 
156   0  99 156   0  49 156   0   0  99 255 255  99 255 206 
 99 255 156  99 255  99  99 255  49  99 255   0  99 206 255 
 99 206 206  99 206 156  99 206  99  99 206  49  99 206   0 
 99 156 255  99 156 206  99 156 156  99 156  99  99 156  49 
 99 156   0  99  99 255  99  99 206  99  99 156  99  99  99 
 99  99  49  99  99   0  99  49 255  99  49 206  99  49 156 
 99  49  99  99  49  49  99  49   0  99   0 255  99   0 206 
 99   0 156  99   0  99  99   0  49  99   0   0  49 255 255 
 49 255 206  49 255 156  49 255  99  49 255  49  49 255   0 
 49 206 255  49 206 206  49 206 156  49 206  99  49 206  49 
 49 206   0  49 156 255  49 156 206  49 156 156  49 156  99 
 49 156  49  49 156   0  49  99 255  49  99 206  49  99 156 
 49  99  99  49 107  49  49  99   0  49  49 255  49  49 206 
 49  49 156  49  49  99  49  49  57  49  49   0  49   0 255 
 49   0 206  49   0 156  49   0  99  49   0  49  49   0   0 
  0 255 206   0 255 156   0 255  99   0 255  49   0 206 255 
  0 206 206   0 206 156   0 206  99   0 206  49   0 206   0 
  0 156 255   0 156 206   0 156 156   0 156  99   0 156  49 
  0 156   0   0  99 255   0  99 206   0  99 156   0  99  99 
  0  99  49   0  99   0   0  49 255   0  49 206   0  49 165 
  0  49  99   0  49  49   0  49   0   0   0 206   0   0 156 
  0   0  99   0   0  49 239   0   0 222   0   0 173   0   0 
148   0   0 115   0   0  82   0   0  66   0   0  33   0   0 
 16   0   0   0 239   0   0 222   0   0 173   0   0 140   0 
  0 115   0   0  82   0   0  66   0   0  33   0   0  16   0 
  0   0 239   0   0 222   0   0 173   0   0 140   0   0 115 
  0   0  82   0   0  66   0   0  33   0   0  16  33  33  49 
255 156 156 255 206 255 156 214 255 156 214 156 255 255 156 
247 247 247 165 206 247 198 222 198 198 198 198   0 189 189 
189   0 189   0   0 189 189 189   0   0 189   0 189   0   0 
  0   0   0 
